<mxfile host="app.diagrams.net" modified="2023-04-10T18:12:34.276Z" agent="Mozilla/5.0 (Windows NT 10.0; Win64; x64) AppleWebKit/537.36 (KHTML, like Gecko) Chrome/111.0.0.0 Safari/537.36" etag="HUr5vi-azHQNMRoeoRcA" version="21.1.5" type="device">
  <diagram name="Página-1" id="NxtkyllFwh4IVB21mMw8">
    <mxGraphModel dx="712" dy="763" grid="1" gridSize="10" guides="1" tooltips="1" connect="1" arrows="1" fold="1" page="1" pageScale="1" pageWidth="827" pageHeight="1169" math="0" shadow="0">
      <root>
        <mxCell id="0" />
        <mxCell id="1" parent="0" />
        <mxCell id="oprrRT-bTCKaURQy0scr-3" style="edgeStyle=orthogonalEdgeStyle;rounded=0;orthogonalLoop=1;jettySize=auto;html=1;entryX=0.5;entryY=0;entryDx=0;entryDy=0;entryPerimeter=0;" edge="1" parent="1" source="oprrRT-bTCKaURQy0scr-1" target="oprrRT-bTCKaURQy0scr-2">
          <mxGeometry relative="1" as="geometry" />
        </mxCell>
        <mxCell id="oprrRT-bTCKaURQy0scr-1" value="&lt;font style=&quot;font-size: 16px;&quot;&gt;Inicio&lt;/font&gt;" style="strokeWidth=2;html=1;shape=mxgraph.flowchart.start_1;whiteSpace=wrap;" vertex="1" parent="1">
          <mxGeometry x="364" y="50" width="100" height="60" as="geometry" />
        </mxCell>
        <mxCell id="oprrRT-bTCKaURQy0scr-31" style="edgeStyle=orthogonalEdgeStyle;rounded=0;orthogonalLoop=1;jettySize=auto;html=1;exitX=0.5;exitY=1;exitDx=0;exitDy=0;exitPerimeter=0;entryX=0.49;entryY=0.183;entryDx=0;entryDy=0;entryPerimeter=0;" edge="1" parent="1" source="oprrRT-bTCKaURQy0scr-2" target="oprrRT-bTCKaURQy0scr-4">
          <mxGeometry relative="1" as="geometry" />
        </mxCell>
        <mxCell id="oprrRT-bTCKaURQy0scr-2" value="&quot;Informe a sua idade&quot;" style="strokeWidth=2;html=1;shape=mxgraph.flowchart.display;whiteSpace=wrap;" vertex="1" parent="1">
          <mxGeometry x="329" y="160" width="170" height="60" as="geometry" />
        </mxCell>
        <mxCell id="oprrRT-bTCKaURQy0scr-32" style="edgeStyle=orthogonalEdgeStyle;rounded=0;orthogonalLoop=1;jettySize=auto;html=1;exitX=0.5;exitY=1;exitDx=0;exitDy=0;entryX=0.5;entryY=0;entryDx=0;entryDy=0;entryPerimeter=0;" edge="1" parent="1" source="oprrRT-bTCKaURQy0scr-4" target="oprrRT-bTCKaURQy0scr-6">
          <mxGeometry relative="1" as="geometry" />
        </mxCell>
        <mxCell id="oprrRT-bTCKaURQy0scr-4" value="idade" style="html=1;strokeWidth=2;shape=manualInput;whiteSpace=wrap;rounded=1;size=26;arcSize=11;" vertex="1" parent="1">
          <mxGeometry x="364" y="260" width="100" height="60" as="geometry" />
        </mxCell>
        <mxCell id="oprrRT-bTCKaURQy0scr-7" style="edgeStyle=orthogonalEdgeStyle;rounded=0;orthogonalLoop=1;jettySize=auto;html=1;exitX=1;exitY=0.5;exitDx=0;exitDy=0;exitPerimeter=0;" edge="1" parent="1" source="oprrRT-bTCKaURQy0scr-6" target="oprrRT-bTCKaURQy0scr-8">
          <mxGeometry relative="1" as="geometry">
            <mxPoint x="580" y="470" as="targetPoint" />
          </mxGeometry>
        </mxCell>
        <mxCell id="oprrRT-bTCKaURQy0scr-11" style="edgeStyle=orthogonalEdgeStyle;rounded=0;orthogonalLoop=1;jettySize=auto;html=1;exitX=0;exitY=0.5;exitDx=0;exitDy=0;exitPerimeter=0;entryX=0.5;entryY=0;entryDx=0;entryDy=0;entryPerimeter=0;" edge="1" parent="1" source="oprrRT-bTCKaURQy0scr-6" target="oprrRT-bTCKaURQy0scr-10">
          <mxGeometry relative="1" as="geometry" />
        </mxCell>
        <mxCell id="oprrRT-bTCKaURQy0scr-6" value="se&lt;br&gt;idade &amp;lt; 14" style="strokeWidth=2;html=1;shape=mxgraph.flowchart.decision;whiteSpace=wrap;" vertex="1" parent="1">
          <mxGeometry x="364" y="360" width="100" height="100" as="geometry" />
        </mxCell>
        <mxCell id="oprrRT-bTCKaURQy0scr-29" style="edgeStyle=orthogonalEdgeStyle;rounded=0;orthogonalLoop=1;jettySize=auto;html=1;exitX=0.5;exitY=1;exitDx=0;exitDy=0;exitPerimeter=0;entryX=1;entryY=0.5;entryDx=0;entryDy=0;entryPerimeter=0;" edge="1" parent="1" source="oprrRT-bTCKaURQy0scr-8" target="oprrRT-bTCKaURQy0scr-27">
          <mxGeometry relative="1" as="geometry" />
        </mxCell>
        <mxCell id="oprrRT-bTCKaURQy0scr-8" value="&quot;Categoria Infantil&quot;" style="strokeWidth=2;html=1;shape=mxgraph.flowchart.display;whiteSpace=wrap;" vertex="1" parent="1">
          <mxGeometry x="530" y="490" width="100" height="60" as="geometry" />
        </mxCell>
        <mxCell id="oprrRT-bTCKaURQy0scr-14" style="edgeStyle=orthogonalEdgeStyle;rounded=0;orthogonalLoop=1;jettySize=auto;html=1;exitX=0;exitY=0.5;exitDx=0;exitDy=0;exitPerimeter=0;entryX=0.5;entryY=0;entryDx=0;entryDy=0;entryPerimeter=0;" edge="1" parent="1" source="oprrRT-bTCKaURQy0scr-10" target="oprrRT-bTCKaURQy0scr-21">
          <mxGeometry relative="1" as="geometry">
            <mxPoint x="180" y="610" as="targetPoint" />
          </mxGeometry>
        </mxCell>
        <mxCell id="oprrRT-bTCKaURQy0scr-16" style="edgeStyle=orthogonalEdgeStyle;rounded=0;orthogonalLoop=1;jettySize=auto;html=1;exitX=1;exitY=0.5;exitDx=0;exitDy=0;exitPerimeter=0;entryX=0.5;entryY=0;entryDx=0;entryDy=0;entryPerimeter=0;" edge="1" parent="1" source="oprrRT-bTCKaURQy0scr-10" target="oprrRT-bTCKaURQy0scr-20">
          <mxGeometry relative="1" as="geometry">
            <mxPoint x="370" y="550" as="targetPoint" />
          </mxGeometry>
        </mxCell>
        <mxCell id="oprrRT-bTCKaURQy0scr-10" value="se&lt;br&gt;idade &amp;gt; 13 e idade &amp;lt; 18" style="strokeWidth=2;html=1;shape=mxgraph.flowchart.decision;whiteSpace=wrap;" vertex="1" parent="1">
          <mxGeometry x="220" y="450" width="100" height="100" as="geometry" />
        </mxCell>
        <mxCell id="oprrRT-bTCKaURQy0scr-12" value="V" style="text;html=1;align=center;verticalAlign=middle;resizable=0;points=[];autosize=1;strokeColor=none;fillColor=none;" vertex="1" parent="1">
          <mxGeometry x="495" y="385" width="30" height="30" as="geometry" />
        </mxCell>
        <mxCell id="oprrRT-bTCKaURQy0scr-13" value="F" style="text;html=1;align=center;verticalAlign=middle;resizable=0;points=[];autosize=1;strokeColor=none;fillColor=none;" vertex="1" parent="1">
          <mxGeometry x="305" y="385" width="30" height="30" as="geometry" />
        </mxCell>
        <mxCell id="oprrRT-bTCKaURQy0scr-18" value="V" style="text;html=1;align=center;verticalAlign=middle;resizable=0;points=[];autosize=1;strokeColor=none;fillColor=none;" vertex="1" parent="1">
          <mxGeometry x="335" y="475" width="30" height="30" as="geometry" />
        </mxCell>
        <mxCell id="oprrRT-bTCKaURQy0scr-19" value="F" style="text;html=1;align=center;verticalAlign=middle;resizable=0;points=[];autosize=1;strokeColor=none;fillColor=none;" vertex="1" parent="1">
          <mxGeometry x="185" y="475" width="30" height="30" as="geometry" />
        </mxCell>
        <mxCell id="oprrRT-bTCKaURQy0scr-24" style="edgeStyle=orthogonalEdgeStyle;rounded=0;orthogonalLoop=1;jettySize=auto;html=1;exitX=0.5;exitY=1;exitDx=0;exitDy=0;exitPerimeter=0;entryX=1;entryY=0.5;entryDx=0;entryDy=0;entryPerimeter=0;" edge="1" parent="1" source="oprrRT-bTCKaURQy0scr-20" target="oprrRT-bTCKaURQy0scr-22">
          <mxGeometry relative="1" as="geometry" />
        </mxCell>
        <mxCell id="oprrRT-bTCKaURQy0scr-20" value="&quot;Categoria Juvenil&quot;" style="strokeWidth=2;html=1;shape=mxgraph.flowchart.display;whiteSpace=wrap;" vertex="1" parent="1">
          <mxGeometry x="314" y="585" width="100" height="60" as="geometry" />
        </mxCell>
        <mxCell id="oprrRT-bTCKaURQy0scr-23" style="edgeStyle=orthogonalEdgeStyle;rounded=0;orthogonalLoop=1;jettySize=auto;html=1;exitX=0.5;exitY=1;exitDx=0;exitDy=0;exitPerimeter=0;entryX=0;entryY=0.5;entryDx=0;entryDy=0;entryPerimeter=0;" edge="1" parent="1" source="oprrRT-bTCKaURQy0scr-21" target="oprrRT-bTCKaURQy0scr-22">
          <mxGeometry relative="1" as="geometry" />
        </mxCell>
        <mxCell id="oprrRT-bTCKaURQy0scr-21" value="&quot;Categoria Sênior&quot;" style="strokeWidth=2;html=1;shape=mxgraph.flowchart.display;whiteSpace=wrap;" vertex="1" parent="1">
          <mxGeometry x="120" y="610" width="100" height="60" as="geometry" />
        </mxCell>
        <mxCell id="oprrRT-bTCKaURQy0scr-28" style="edgeStyle=orthogonalEdgeStyle;rounded=0;orthogonalLoop=1;jettySize=auto;html=1;exitX=0.5;exitY=1;exitDx=0;exitDy=0;exitPerimeter=0;entryX=0;entryY=0.5;entryDx=0;entryDy=0;entryPerimeter=0;" edge="1" parent="1" source="oprrRT-bTCKaURQy0scr-22" target="oprrRT-bTCKaURQy0scr-27">
          <mxGeometry relative="1" as="geometry" />
        </mxCell>
        <mxCell id="oprrRT-bTCKaURQy0scr-22" value="" style="strokeWidth=2;html=1;shape=mxgraph.flowchart.start_1;whiteSpace=wrap;" vertex="1" parent="1">
          <mxGeometry x="252.5" y="750" width="35" height="20" as="geometry" />
        </mxCell>
        <mxCell id="oprrRT-bTCKaURQy0scr-25" value="Fim" style="strokeWidth=2;html=1;shape=mxgraph.flowchart.terminator;whiteSpace=wrap;" vertex="1" parent="1">
          <mxGeometry x="332.5" y="950" width="100" height="60" as="geometry" />
        </mxCell>
        <mxCell id="oprrRT-bTCKaURQy0scr-30" style="edgeStyle=orthogonalEdgeStyle;rounded=0;orthogonalLoop=1;jettySize=auto;html=1;exitX=0.5;exitY=1;exitDx=0;exitDy=0;exitPerimeter=0;entryX=0.5;entryY=0;entryDx=0;entryDy=0;entryPerimeter=0;" edge="1" parent="1" source="oprrRT-bTCKaURQy0scr-27" target="oprrRT-bTCKaURQy0scr-25">
          <mxGeometry relative="1" as="geometry" />
        </mxCell>
        <mxCell id="oprrRT-bTCKaURQy0scr-27" value="" style="strokeWidth=2;html=1;shape=mxgraph.flowchart.start_1;whiteSpace=wrap;" vertex="1" parent="1">
          <mxGeometry x="365" y="850" width="35" height="20" as="geometry" />
        </mxCell>
      </root>
    </mxGraphModel>
  </diagram>
</mxfile>
